<?xml version="1.0" encoding="UTF-8"?>
<svg width="10px" height="12px" viewBox="0 0 10 12" version="1.1" xmlns="http://www.w3.org/2000/svg" xmlns:xlink="http://www.w3.org/1999/xlink">
    <!-- Generator: Sketch 64 (93537) - https://sketch.com -->
    <title>download</title>
    <desc>Created with Sketch.</desc>
    <defs>
        <path d="M10.5,8 C10.7761424,8 11,8.22385763 11,8.5 L11,8.5 L11,10 C11,10.8284271 10.3284271,11.5 9.5,11.5 L9.5,11.5 L2.5,11.5 C1.67157288,11.5 1,10.8284271 1,10 L1,10 L1,8.5 C1,8.22385763 1.22385763,8 1.5,8 C1.77614237,8 2,8.22385763 2,8.5 L2,8.5 L2,10 C2,10.2761424 2.22385763,10.5 2.5,10.5 L2.5,10.5 L9.5,10.5 C9.77614237,10.5 10,10.2761424 10,10 L10,10 L10,8.5 C10,8.22385763 10.2238576,8 10.5,8 Z M6,0.5 C6.27614237,0.5 6.5,0.723857625 6.5,1 L6.5,1 L6.5,6.792 L7.64644661,5.64644661 C7.82001296,5.47288026 8.08943736,5.45359511 8.2843055,5.58859116 L8.35355339,5.64644661 C8.54881554,5.84170876 8.54881554,6.15829124 8.35355339,6.35355339 L8.35355339,6.35355339 L6.35355339,8.35355339 C6.34946578,8.357641 6.345325,8.36164305 6.34113328,8.36555952 C6.32881868,8.3770608 6.31575424,8.38807975 6.30214392,8.39841727 C6.29060915,8.40722546 6.27883464,8.41539065 6.26680652,8.42299295 C6.25568247,8.42998066 6.24404667,8.43670666 6.23212724,8.44296566 C6.21827569,8.45025039 6.20453886,8.45664853 6.1905951,8.46238944 C6.17802507,8.46759155 6.16473685,8.4724419 6.15119917,8.47673158 C6.13583471,8.48155198 6.12047425,8.48560387 6.10498705,8.48891432 C6.07130067,8.49617485 6.03609704,8.5 6,8.5 L6.07190411,8.49483331 C6.05487076,8.49729494 6.03773477,8.49887696 6.02056948,8.49957935 L6,8.5 C5.99318167,8.5 5.98639522,8.49986352 5.97964322,8.49959315 C5.96293275,8.49893824 5.94546098,8.49734289 5.92809589,8.49483331 C5.91661634,8.49320625 5.90562898,8.49123323 5.89477235,8.48890777 C5.87952575,8.48560387 5.86416529,8.48155198 5.84898836,8.47675865 C5.83526315,8.4724419 5.82197493,8.46759155 5.80896344,8.46220776 C5.79546114,8.45664853 5.78172431,8.45025039 5.76824181,8.44319503 C5.75595333,8.43670666 5.74431753,8.42998066 5.73298968,8.42281199 C5.70240643,8.40353418 5.67328088,8.38038766 5.64644661,8.35355339 L5.69785608,8.39841727 C5.68424576,8.38807975 5.67118132,8.3770608 5.65871357,8.36541125 L5.64644661,8.35355339 L3.64644661,6.35355339 C3.45118446,6.15829124 3.45118446,5.84170876 3.64644661,5.64644661 C3.84170876,5.45118446 4.15829124,5.45118446 4.35355339,5.64644661 L4.35355339,5.64644661 L5.5,6.792 L5.5,1 C5.5,0.754540111 5.67687516,0.55039163 5.91012437,0.508055669 Z" id="path-1"></path>
    </defs>
    <g id="Page-1" stroke="none" stroke-width="1" fill="none" fill-rule="evenodd" opacity="0.496047247">
        <g id="TPM-dashboard-v2---1" transform="translate(-1356.000000, -173.000000)">
            <g id="Group-11" transform="translate(1295.000000, 173.000000)">
                <g id="download" transform="translate(60.000000, 0.000000)">
                    <mask id="mask-2" fill="white">
                        <use xlink:href="#path-1"></use>
                    </mask>
                    <use id="Combined-Shape" fill="#000000" fill-rule="nonzero" xlink:href="#path-1"></use>
                    <g id="COLOR/-black" mask="url(#mask-2)" fill="#000000" fill-rule="evenodd">
                        <rect id="Rectangle" x="0" y="0" width="12" height="12"></rect>
                    </g>
                </g>
            </g>
        </g>
    </g>
</svg>